HIERARCHY
ROOT joint_Root
{
	OFFSET 0.0 0.0 0.0
	CHANNELS 6 Xposition Yposition Zposition Zrotation Xrotation Yrotation 
	JOINT Hips
	{
		OFFSET 4.5925 91.4895 -427.239
		CHANNELS 6 Xposition Yposition Zposition Zrotation Xrotation Yrotation 
		JOINT Spine
		{
			OFFSET 15.7357 0.0 0.0
			CHANNELS 6 Xposition Yposition Zposition Zrotation Xrotation Yrotation 
			JOINT Chest
			{
				OFFSET 8.98455 -0.406207 0.0
				CHANNELS 6 Xposition Yposition Zposition Zrotation Xrotation Yrotation 
				JOINT Neck
				{
					OFFSET 16.3773 0.0 0.0
					CHANNELS 6 Xposition Yposition Zposition Zrotation Xrotation Yrotation 
					JOINT Head
					{
						OFFSET 6.45672 0.0 0.0
						CHANNELS 6 Xposition Yposition Zposition Zrotation Xrotation Yrotation 
						End Site
						{
							OFFSET 0.0 0.0 0.0
						}
					}
				}
				JOINT Shoulder_L
				{
					OFFSET 12.9942 -0.242716 4.98039
					CHANNELS 6 Xposition Yposition Zposition Zrotation Xrotation Yrotation 
					JOINT UpperArm_L
					{
						OFFSET 5.34809 0.0 0.0
						CHANNELS 6 Xposition Yposition Zposition Zrotation Xrotation Yrotation 
						JOINT LowerArm_L
						{
							OFFSET 24.3286 1.87007e-05 0.0
							CHANNELS 6 Xposition Yposition Zposition Zrotation Xrotation Yrotation 
							JOINT Hand_L
							{
								OFFSET 22.2916 0.0 0.0
								CHANNELS 6 Xposition Yposition Zposition Zrotation Xrotation Yrotation 
								End Site
								{
									OFFSET 0.0 0.0 0.0
								}
							}
						}
					}
				}
				JOINT Shoulder_R
				{
					OFFSET 12.9945 -0.242716 -4.98039
					CHANNELS 6 Xposition Yposition Zposition Zrotation Xrotation Yrotation 
					JOINT UpperArm_R
					{
						OFFSET -5.34813 0.0 0.0
						CHANNELS 6 Xposition Yposition Zposition Zrotation Xrotation Yrotation 
						JOINT LowerArm_R
						{
							OFFSET -24.3289 0.000322201 0.0
							CHANNELS 6 Xposition Yposition Zposition Zrotation Xrotation Yrotation 
							JOINT Hand_R
							{
								OFFSET -22.2915 -0.000108084 0.0
								CHANNELS 6 Xposition Yposition Zposition Zrotation Xrotation Yrotation 
								End Site
								{
									OFFSET 0.0 0.0 0.0
								}
							}
						}
					}
				}
			}
		}
		JOINT UpperLeg_L
		{
			OFFSET -2.19248 -6.46944 0.0
			CHANNELS 6 Xposition Yposition Zposition Zrotation Xrotation Yrotation 
			JOINT LowerLeg_L
			{
				OFFSET 39.0811 0.0 -1.23785e-05
				CHANNELS 6 Xposition Yposition Zposition Zrotation Xrotation Yrotation 
				JOINT Foot_L
				{
					OFFSET 40.9854 0.0 -1.26872e-05
					CHANNELS 6 Xposition Yposition Zposition Zrotation Xrotation Yrotation 
					JOINT Toes_L
					{
						OFFSET 11.7543 0.0 0.0
						CHANNELS 6 Xposition Yposition Zposition Zrotation Xrotation Yrotation 
						End Site
						{
							OFFSET 0.0 0.0 0.0
						}
					}
				}
			}
		}
		JOINT UpperLeg_R
		{
			OFFSET -2.19251 6.46944 0.0
			CHANNELS 6 Xposition Yposition Zposition Zrotation Xrotation Yrotation 
			JOINT LowerLeg_R
			{
				OFFSET -39.0811 -0.00228153 -0.0401928
				CHANNELS 6 Xposition Yposition Zposition Zrotation Xrotation Yrotation 
				JOINT Foot_R
				{
					OFFSET -40.9854 0.0 0.0
					CHANNELS 6 Xposition Yposition Zposition Zrotation Xrotation Yrotation 
					JOINT Toes_R
					{
						OFFSET -11.7543 0.0 0.0
						CHANNELS 6 Xposition Yposition Zposition Zrotation Xrotation Yrotation 
						End Site
						{
							OFFSET 0.0 0.0 0.0
						}
					}
				}
			}
		}
	}
}
MOTION
Frames:	6
Frame Time:	0.0333333
0.000000 0.000000 0.000000 0.000000 0.000000 -0.000000 -3.121160 89.817900 -0.279315 86.999300 -2.848360 8.145800 15.735700 0.000005 -0.000001 80.571500 84.579000 -83.204400 8.984550 -0.406207 -0.000000 2.897920 -1.662670 -5.218290 16.377300 -0.000001 -0.000001 7.697340 -1.987340 7.066140 6.456720 -0.000001 -0.000000 -1.626900 3.554100 2.915780 12.994200 -0.242716 4.980390 -91.237200 3.247450 -69.132300 5.348090 -0.000007 -0.000001 -64.471800 27.967500 -9.946080 24.328600 0.000019 0.000005 5.471880 20.844500 -15.067200 22.291600 -0.000001 0.000005 15.949200 5.128830 4.440810 12.994500 -0.242716 -4.980390 94.942000 -10.221400 -64.020800 -5.348130 -0.000001 -0.000004 -78.555900 -65.263900 -122.431000 -24.328900 0.000322 -0.000009 -8.197670 -3.006880 -69.985100 -22.291500 -0.000108 -0.000004 60.751400 5.619040 -29.480200 -2.192480 -6.469440 -0.000000 -171.091000 -10.218800 -5.273220 39.081100 -0.000007 -0.000012 -0.283328 0.380111 36.700800 40.985400 -0.000006 -0.000013 -1.698070 4.407950 -72.726300 11.754300 -0.000000 0.000003 -0.000307 -0.002651 -16.676300 -2.192510 6.469440 -0.000001 -178.937000 15.718300 176.329000 -39.081100 -0.002282 -0.040193 0.043383 -0.057826 34.734600 -40.985400 0.000008 0.000006 7.724050 5.858120 -73.119400 -11.754300 -0.000006 -0.000006 -0.001937 -0.027930 -17.708800
0.000000 0.000000 0.000000 0.000000 0.000000 -0.000000 -3.360190 89.857500 -0.266114 86.579600 -3.481720 8.094380 15.735700 0.000005 -0.000001 79.668700 84.768500 -82.338700 8.984550 -0.406207 -0.000000 2.493300 -1.752180 -5.296670 16.377300 -0.000001 -0.000001 7.856260 -2.035840 6.671720 6.456720 -0.000001 -0.000000 -1.085360 3.158010 3.315440 12.994200 -0.242716 4.980390 -91.135300 2.978700 -69.124700 5.348090 -0.000007 -0.000001 -66.142000 26.170400 -9.080370 24.328600 0.000019 0.000005 4.638170 19.308700 -13.784300 22.291600 -0.000001 0.000005 16.912800 5.119970 4.652240 12.994500 -0.242716 -4.980390 94.099900 -8.860420 -65.046500 -5.348130 -0.000001 -0.000004 -64.568200 -64.168600 -106.710000 -24.328900 0.000322 -0.000009 -11.768700 -6.389450 -61.913600 -22.291500 -0.000108 -0.000004 52.006700 5.676390 -25.925600 -2.192480 -6.469440 -0.000000 -170.532000 -10.077900 -5.126420 39.081100 -0.000007 -0.000012 -0.291904 0.392773 36.619800 40.985400 -0.000006 -0.000013 -2.098980 3.818420 -72.744200 11.754300 -0.000000 0.000003 -0.000286 -0.002499 -16.670800 -2.192510 6.469440 -0.000001 -178.470000 15.998000 176.575000 -39.081100 -0.002282 -0.040193 0.041159 -0.055562 34.275100 -40.985400 0.000008 0.000006 7.959460 6.666460 -72.991700 -11.754300 -0.000006 -0.000006 -0.002027 -0.029060 -17.754800
0.000000 0.000000 0.000000 0.000000 0.000000 -0.000000 -3.537470 89.834900 -0.260119 86.100300 -4.688610 8.126250 15.735700 0.000005 -0.000001 81.627900 84.945400 -84.436900 8.984550 -0.406207 -0.000000 2.209480 -1.334790 -5.586770 16.377300 -0.000001 -0.000001 7.398980 -1.703580 5.436860 6.456720 -0.000001 -0.000000 -0.655285 2.628450 3.571320 12.994200 -0.242716 4.980390 -91.218100 3.181670 -69.037800 5.348090 -0.000007 -0.000001 -65.836100 26.982900 -9.477060 24.328600 0.000019 0.000005 3.662840 17.029100 -12.329700 22.291600 -0.000001 0.000005 15.527400 5.145560 4.040460 12.994500 -0.242716 -4.980390 93.073400 -7.423560 -67.437800 -5.348130 -0.000001 -0.000004 -50.832100 -61.929400 -89.286000 -24.328900 0.000322 -0.000009 -11.801400 -10.085000 -50.039400 -22.291500 -0.000108 -0.000004 33.736800 5.662120 -12.995100 -2.192480 -6.469440 -0.000000 -169.953000 -10.008000 -4.902030 39.081100 -0.000007 -0.000012 -0.306223 0.408863 36.832500 40.985400 -0.000006 -0.000013 -2.592090 2.788170 -72.990200 11.754300 -0.000000 0.000003 -0.000286 -0.002501 -16.670900 -2.192510 6.469440 -0.000001 -178.101000 16.356500 176.805000 -39.081100 -0.002282 -0.040193 0.037176 -0.050100 34.070200 -40.985400 0.000008 0.000006 8.262970 8.086840 -73.050100 -11.754300 -0.000006 -0.000006 -0.002172 -0.030846 -17.827400
0.000000 0.000000 0.000000 0.000000 0.000000 -0.000000 -3.717210 89.725200 -0.332245 85.688900 -5.734930 8.517040 15.735700 0.000005 -0.000001 84.747800 84.946900 -87.952800 8.984550 -0.406207 -0.000000 2.284500 -0.771362 -6.388280 16.377300 -0.000001 -0.000001 6.581290 -1.150210 3.909560 6.456720 -0.000001 -0.000000 -0.394475 2.067430 4.444220 12.994200 -0.242716 4.980390 -91.387400 3.612110 -68.972700 5.348090 -0.000007 -0.000001 -63.906300 28.123400 -10.317100 24.328600 0.000019 0.000005 4.000730 17.927900 -12.799500 22.291600 -0.000001 0.000005 12.434700 5.168070 3.503880 12.994500 -0.242716 -4.980390 92.175000 -6.062270 -70.225500 -5.348130 -0.000001 -0.000004 -38.880600 -57.172100 -71.866100 -24.328900 0.000322 -0.000009 -14.140500 -18.770400 -38.105400 -22.291500 -0.000108 -0.000004 21.552500 5.282260 0.770031 -2.192480 -6.469440 -0.000000 -169.304000 -10.041700 -4.548580 39.081100 -0.000007 -0.000012 -0.329862 0.431417 37.402200 40.985400 -0.000006 -0.000013 -2.977700 2.143230 -73.353400 11.754300 -0.000000 0.000003 -0.000296 -0.002573 -16.673500 -2.192510 6.469440 -0.000001 -177.710000 16.159000 177.118000 -39.081100 -0.002282 -0.040193 0.036056 -0.048034 34.297400 -40.985400 0.000008 0.000006 8.519660 8.745190 -73.280100 -11.754300 -0.000006 -0.000006 -0.002104 -0.030008 -17.793300
0.000000 0.000000 0.000000 0.000000 0.000000 -0.000000 -3.944720 89.571400 -0.462788 85.411600 -6.444670 8.915140 15.735700 0.000005 -0.000001 86.104400 84.883500 -89.893300 8.984550 -0.406207 -0.000000 2.437510 -0.518832 -7.559140 16.377300 -0.000001 -0.000001 5.684730 -0.580687 2.533530 6.456720 -0.000001 -0.000000 -0.409335 1.830680 5.408810 12.994200 -0.242716 4.980390 -91.654200 4.233920 -68.637500 5.348090 -0.000007 -0.000001 -61.244300 28.437200 -11.009200 24.328600 0.000019 0.000005 5.153910 20.060800 -14.731100 22.291600 -0.000001 0.000005 11.079000 5.179030 3.239370 12.994500 -0.242716 -4.980390 91.496600 -4.954440 -73.173600 -5.348130 -0.000001 -0.000004 -38.916600 -51.032800 -62.150200 -24.328900 0.000322 -0.000009 -17.462200 -31.831200 -30.832100 -22.291500 -0.000108 -0.000004 20.503600 4.855850 10.166300 -2.192480 -6.469440 -0.000000 -168.520000 -10.958800 -4.365880 39.081100 -0.000007 -0.000012 -0.334696 0.426329 38.134900 40.985400 -0.000006 -0.000013 -3.037320 2.574120 -73.632700 11.754300 -0.000000 0.000003 -0.000313 -0.002695 -16.677800 -2.192510 6.469440 -0.000001 -177.234000 15.551400 177.226000 -39.081100 -0.002282 -0.040193 0.038262 -0.050307 34.805200 -40.985400 0.000008 0.000006 8.817150 8.615190 -73.604700 -11.754300 -0.000006 -0.000006 -0.002099 -0.029949 -17.790900
0.000000 0.000000 0.000000 0.000000 0.000000 -0.000000 -4.173800 89.444400 -0.528994 85.420100 -6.498810 9.372450 15.735700 0.000005 -0.000001 87.328000 84.770300 -91.665700 8.984550 -0.406207 -0.000000 2.685670 -0.295387 -8.659350 16.377300 -0.000001 -0.000001 4.737540 0.099402 0.962725 6.456720 -0.000001 -0.000000 -0.335880 0.996218 5.793220 12.994200 -0.242716 4.980390 -91.994000 5.019490 -68.301200 5.348090 -0.000007 -0.000001 -58.933200 27.925700 -11.461000 24.328600 0.000019 0.000005 5.860900 20.083300 -16.643800 22.291600 -0.000001 0.000005 11.904400 5.197830 2.778040 12.994500 -0.242716 -4.980390 90.813800 -3.014160 -74.886600 -5.348130 -0.000001 -0.000004 -42.368700 -46.978900 -54.596600 -24.328900 0.000322 -0.000009 -23.226500 -42.144400 -32.600400 -22.291500 -0.000108 -0.000004 22.211300 4.403630 18.168800 -2.192480 -6.469440 -0.000000 -168.140000 -11.301400 -4.136100 39.081100 -0.000007 -0.000012 -0.336930 0.421907 38.611100 40.985400 -0.000006 -0.000013 -3.053570 3.048570 -73.790500 11.754300 -0.000000 0.000003 -0.000314 -0.002701 -16.678000 -2.192510 6.469440 -0.000001 -177.255000 15.819500 177.477000 -39.081100 -0.002282 -0.040193 0.039148 -0.050678 35.281600 -40.985400 0.000008 0.000006 9.118680 8.733970 -74.019000 -11.754300 -0.000006 -0.000006 -0.002154 -0.030624 -17.818400
